<svg width="20" height="20" viewBox="0 0 20 20" fill="none" xmlns="http://www.w3.org/2000/svg">
<rect width="20" height="20" rx="10" fill="#BEA4F3"/>
<path fill-rule="evenodd" clip-rule="evenodd" d="M7.81431 5.41663H12.1857C13.0186 5.41663 13.7676 5.98714 14.077 6.85719L14.4244 7.83427C14.5296 8.13005 14.6023 8.44655 14.5256 8.75094C14.3439 9.47185 13.7545 9.99996 13.0555 9.99996C12.2118 9.99996 11.5278 9.23045 11.5278 8.28121C11.5278 9.23045 10.8438 9.99996 9.99998 9.99996C9.15622 9.99996 8.47221 9.23045 8.47221 8.28121C8.47221 9.23045 7.7882 9.99996 6.94443 9.99996C6.24543 9.99996 5.65607 9.47185 5.47441 8.75094C5.39771 8.44655 5.4704 8.13005 5.57556 7.83427L5.92297 6.85719C6.23232 5.98714 6.98136 5.41663 7.81431 5.41663ZM6.33334 10.596V12.7499C6.33334 13.7624 7.15415 14.5832 8.16667 14.5832H11.8333C12.8459 14.5832 13.6667 13.7624 13.6667 12.7499V10.596C13.4747 10.6553 13.2701 10.6874 13.0556 10.6874C12.4427 10.6874 11.9146 10.4295 11.5278 10.0256C11.1411 10.4295 10.6129 10.6874 10 10.6874C9.38718 10.6874 8.85901 10.4295 8.47226 10.0256C8.08551 10.4295 7.55733 10.6874 6.94448 10.6874C6.72992 10.6874 6.52532 10.6552 6.33334 10.596ZM11.6744 12.1227C11.7676 12.2881 11.7091 12.4977 11.5438 12.591C10.9868 12.905 10.5071 13.0926 10.0012 13.0936C9.49478 13.0946 9.01412 12.9084 8.45498 12.5903C8.28996 12.4964 8.23229 12.2866 8.32616 12.1216C8.42004 11.9565 8.62991 11.8989 8.79492 11.9927C9.31568 12.289 9.67092 12.4067 9.99992 12.4061C10.3295 12.4055 10.6849 12.286 11.2061 11.9921C11.3715 11.8989 11.5811 11.9573 11.6744 12.1227Z" fill="white"/>
</svg>
