<svg width="34" height="34" viewBox="0 0 34 34" fill="none" xmlns="http://www.w3.org/2000/svg">
<g filter="url(#filter0_d_4707_343)">
<rect x="5" y="3" width="20" height="20" rx="10" fill="#EB73A0"/>
<path d="M9.5 14.375C9.5 13.1719 9.78646 12.1005 10.3594 11.1609C10.9323 10.2214 11.5625 9.43073 12.25 8.78906C12.9375 8.1474 13.5677 7.65744 14.1406 7.31919L15 6.8125V9.08125C15 9.50521 15.1432 9.84025 15.4297 10.0864C15.7161 10.3325 16.037 10.4558 16.3922 10.4563C16.587 10.4563 16.7733 10.4161 16.9511 10.3359C17.129 10.2557 17.2921 10.124 17.4406 9.94063L17.75 9.5625C18.575 10.0438 19.2396 10.7111 19.7437 11.5645C20.2479 12.4179 20.5 13.3548 20.5 14.375C20.5 15.3833 20.2536 16.303 19.7609 17.1339C19.2682 17.9649 18.6208 18.6205 17.8188 19.1009C18.0135 18.8259 18.1655 18.525 18.2746 18.1982C18.3836 17.8714 18.438 17.5251 18.4375 17.1594C18.4375 16.701 18.3516 16.2684 18.1797 15.8614C18.0078 15.4544 17.7615 15.0907 17.4406 14.7703L15 12.3813L12.5766 14.7703C12.2443 15.1026 11.9922 15.4693 11.8203 15.8703C11.6484 16.2714 11.5625 16.701 11.5625 17.1594C11.5625 17.526 11.617 17.8728 11.7261 18.1996C11.8352 18.5264 11.9869 18.827 12.1813 19.1016C11.3792 18.6203 10.7318 17.9642 10.2391 17.1332C9.74635 16.3023 9.5 15.3829 9.5 14.375ZM15 14.3062L16.4609 15.7328C16.6557 15.9276 16.8047 16.1453 16.9078 16.3859C17.0109 16.6266 17.0625 16.8844 17.0625 17.1594C17.0625 17.7208 16.862 18.1991 16.4609 18.5942C16.0599 18.9893 15.5729 19.187 15 19.1875C14.4271 19.1875 13.9401 18.9897 13.5391 18.5942C13.138 18.1986 12.9375 17.7204 12.9375 17.1594C12.9375 16.8958 12.9891 16.6408 13.0922 16.3942C13.1953 16.1476 13.3443 15.9271 13.5391 15.7328L15 14.3062Z" fill="white"/>
</g>
<defs>
<filter id="filter0_d_4707_343" x="0.294118" y="0.647058" width="32.9412" height="32.9412" filterUnits="userSpaceOnUse" color-interpolation-filters="sRGB">
<feFlood flood-opacity="0" result="BackgroundImageFix"/>
<feColorMatrix in="SourceAlpha" type="matrix" values="0 0 0 0 0 0 0 0 0 0 0 0 0 0 0 0 0 0 127 0" result="hardAlpha"/>
<feMorphology radius="0.588235" operator="dilate" in="SourceAlpha" result="effect1_dropShadow_4707_343"/>
<feOffset dx="1.76471" dy="4.11765"/>
<feGaussianBlur stdDeviation="2.94118"/>
<feComposite in2="hardAlpha" operator="out"/>
<feColorMatrix type="matrix" values="0 0 0 0 0.804167 0 0 0 0 0.804167 0 0 0 0 0.804167 0 0 0 0.25 0"/>
<feBlend mode="normal" in2="BackgroundImageFix" result="effect1_dropShadow_4707_343"/>
<feBlend mode="normal" in="SourceGraphic" in2="effect1_dropShadow_4707_343" result="shape"/>
</filter>
</defs>
</svg>
